<svg xmlns="http://www.w3.org/2000/svg" viewBox="0 0 173 200" role="img" aria-label="twcovid package hex badge">
  <!-- hexagon -->
  <path d="M86.5 2 L171 50.5 V149.5 L86.5 198 L2 149.5 V50.5 Z" fill="#9c3848" stroke="#76283a" stroke-width="4" stroke-linejoin="round"/>
  <!-- inner border -->
  <path d="M86.5 2 L171 50.5 V149.5 L86.5 198 L2 149.5 V50.5 Z" fill="none" stroke="#e6b8c0" stroke-width="1.5" stroke-linejoin="round" opacity="0.55" transform="translate(86.5,100) scale(0.92) translate(-86.5,-100)"/>

  <!-- motif: coronavirus virion (white) -->
  <!-- spikes -->
  <g stroke="#ffffff" stroke-width="3.4" stroke-linecap="round">
    <line x1="106.5" y1="72.0" x2="119.5" y2="72.0"/>
    <line x1="103.8" y1="82.0" x2="115.1" y2="88.5"/>
    <line x1="96.5" y1="89.3" x2="103.0" y2="100.6"/>
    <line x1="86.5" y1="92.0" x2="86.5" y2="105.0"/>
    <line x1="76.5" y1="89.3" x2="70.0" y2="100.6"/>
    <line x1="69.2" y1="82.0" x2="57.9" y2="88.5"/>
    <line x1="66.5" y1="72.0" x2="53.5" y2="72.0"/>
    <line x1="69.2" y1="62.0" x2="57.9" y2="55.5"/>
    <line x1="76.5" y1="54.7" x2="70.0" y2="43.4"/>
    <line x1="86.5" y1="52.0" x2="86.5" y2="39.0"/>
    <line x1="96.5" y1="54.7" x2="103.0" y2="43.4"/>
    <line x1="103.8" y1="62.0" x2="115.1" y2="55.5"/>
  </g>
  <!-- spike knobs -->
  <g fill="#ffffff">
    <circle cx="123.5" cy="72.0" r="3.6"/>
    <circle cx="118.5" cy="90.5" r="3.6"/>
    <circle cx="105.0" cy="104.0" r="3.6"/>
    <circle cx="86.5" cy="109.0" r="3.6"/>
    <circle cx="68.0" cy="104.0" r="3.6"/>
    <circle cx="54.5" cy="90.5" r="3.6"/>
    <circle cx="49.5" cy="72.0" r="3.6"/>
    <circle cx="54.5" cy="53.5" r="3.6"/>
    <circle cx="68.0" cy="40.0" r="3.6"/>
    <circle cx="86.5" cy="35.0" r="3.6"/>
    <circle cx="105.0" cy="40.0" r="3.6"/>
    <circle cx="118.5" cy="53.5" r="3.6"/>
  </g>
  <!-- core -->
  <circle cx="86.5" cy="72" r="21" fill="#ffffff"/>
  <!-- surface dots (tinted) -->
  <g fill="#9c3848" opacity="0.5">
    <circle cx="86.5" cy="72" r="3.4"/>
    <circle cx="78" cy="65" r="2.6"/>
    <circle cx="95" cy="66" r="2.6"/>
    <circle cx="80" cy="80" r="2.6"/>
    <circle cx="94" cy="79" r="2.6"/>
  </g>

  <!-- name -->
  <text x="86.5" y="146" text-anchor="middle" font-family="Palatino, 'Palatino Linotype', 'Book Antiqua', Georgia, serif" font-weight="bold" font-size="26" fill="#ffffff">twcovid</text>
</svg>
